<svg xmlns="http://www.w3.org/2000/svg" viewBox="0 0 400 300">
  <rect width="400" height="300" fill="#F5E6D3" rx="8"/>
  <ellipse cx="170" cy="150" rx="40" ry="20" fill="#D4A017" opacity="0.7" transform="rotate(-15 170 150)"/>
  <ellipse cx="230" cy="140" rx="40" ry="20" fill="#D4A017" opacity="0.7" transform="rotate(10 230 140)"/>
  <ellipse cx="170" cy="155" rx="30" ry="12" fill="#fff" opacity="0.6" transform="rotate(-15 170 155)"/>
  <ellipse cx="230" cy="145" rx="30" ry="12" fill="#fff" opacity="0.6" transform="rotate(10 230 145)"/>
  <circle cx="160" cy="155" r="3" fill="#8B1A1A"/>
  <circle cx="175" cy="150" r="3" fill="#8B1A1A"/>
  <circle cx="168" cy="158" r="3" fill="#8B1A1A"/>
  <circle cx="220" cy="145" r="3" fill="#8B1A1A"/>
  <circle cx="235" cy="138" r="3" fill="#8B1A1A"/>
  <circle cx="228" cy="148" r="3" fill="#8B1A1A"/>
  <circle cx="180" cy="130" r="3" fill="#2D5016"/>
  <circle cx="210" cy="125" r="3" fill="#2D5016"/>
  <circle cx="195" cy="135" r="3" fill="#2D5016"/>
  <text x="200" y="270" text-anchor="middle" font-size="12" fill="#8B1A1A" font-family="Georgia">Cannoli</text>
</svg>