<svg xmlns="http://www.w3.org/2000/svg" viewBox="0 0 400 300">
  <rect width="400" height="300" fill="#F5E6D3" rx="8"/>
  <circle cx="200" cy="140" r="90" fill="#D4A017" opacity="0.5"/>
  <circle cx="200" cy="140" r="75" fill="#C0392B" opacity="0.6"/>
  <circle cx="160" cy="120" r="18" fill="#fff" opacity="0.8"/>
  <circle cx="230" cy="130" r="18" fill="#fff" opacity="0.8"/>
  <circle cx="180" cy="170" r="18" fill="#fff" opacity="0.8"/>
  <circle cx="240" cy="165" r="18" fill="#fff" opacity="0.8"/>
  <rect x="145" y="110" width="30" height="6" rx="3" fill="#8B1A1A" transform="rotate(-20 160 113)"/>
  <rect x="155" y="130" width="30" height="6" rx="3" fill="#8B1A1A" transform="rotate(15 170 133)"/>
  <rect x="220" y="120" width="30" height="6" rx="3" fill="#8B1A1A" transform="rotate(-10 235 123)"/>
  <rect x="230" y="155" width="30" height="6" rx="3" fill="#8B1A1A" transform="rotate(25 245 158)"/>
  <rect x="170" y="160" width="30" height="6" rx="3" fill="#8B1A1A" transform="rotate(-5 185 163)"/>
  <circle cx="200" cy="140" r="4" fill="#C0392B"/>
  <text x="200" y="270" text-anchor="middle" font-size="12" fill="#8B1A1A" font-family="Georgia">Diavola</text>
</svg>